<?xml version="1.0" standalone="no"?>
<!DOCTYPE svg PUBLIC "-//W3C//DTD SVG 1.1//EN" "http://www.w3.org/Graphics/SVG/1.1/DTD/svg11.dtd" >
<svg xmlns="http://www.w3.org/2000/svg">
<metadata></metadata>
<defs>
<font id="SSSocialCircle" >
<font-face font-family="SS Social" units-per-em="2048" ascent="2176" descent="-640" />
<missing-glyph  />
<glyph  horiz-adv-x="2048"  />
<glyph unicode="&#x2709;" horiz-adv-x="2048" d="M1024 2048q208 0 397.5 -81.5t326.5 -218.5t218.5 -326.5t81.5 -397.5q0 -209 -81.5 -398.5t-218.5 -326.5t-326.5 -218t-397.5 -81q-209 0 -398.5 81t-326.5 218t-218 326.5t-81 398.5q0 208 81 397.5t218 326.5t326.5 218.5t398.5 81.5zM1024 934l640 479
q0 34 -23.5 57t-57.5 23h-1118q-34 0 -57.5 -23t-23.5 -57zM1664 635v612l-640 -479l-640 479v-612q0 -34 23.5 -57t57.5 -23h1118q34 0 57.5 23t23.5 57z" />
<glyph unicode="&#xe310;" horiz-adv-x="2048" d="M1024 2048q208 0 397.5 -81.5t326.5 -218.5t218.5 -326.5t81.5 -397.5q0 -209 -81.5 -398.5t-218.5 -326.5t-326.5 -218t-397.5 -81q-209 0 -398.5 81t-326.5 218t-218 326.5t-81 398.5q0 208 81 397.5t218 326.5t326.5 218.5t398.5 81.5zM1451 512h213q0 234 -91.5 447
t-246 367.5t-367.5 246t-447 91.5v-213q191 0 365 -74.5t299.5 -200t200 -299.5t74.5 -365zM1067 512h213q0 209 -103 385.5t-279.5 279.5t-385.5 103v-213q150 0 278 -74.5t202.5 -202.5t74.5 -278zM683 512q71 0 120.5 50t49.5 121t-49.5 120.5t-120.5 49.5t-121 -49.5
t-50 -120.5t50 -121t121 -50z" />
<glyph unicode="&#xf601;" horiz-adv-x="2048" d="M1024 2048q208 0 397.5 -81t327 -218.5t218.5 -327t81 -397.5t-81 -397.5t-218.5 -327t-327 -218.5t-397.5 -81t-397.5 81t-327 218.5t-218.5 327t-81 397.5t81 397.5t218.5 327t327 218.5t397.5 81zM1198 803l-442 221l442 221q65 -50 146 -50q97 0 166 68.5t69 165.5
t-68.5 166t-166.5 69t-166.5 -69t-68.5 -166v-6l-430 -215q-64 51 -146 51q-97 0 -165.5 -69t-68.5 -166t68.5 -166t165.5 -69q82 0 146 51l430 -215v-6q0 -97 68.5 -166t166.5 -69t166.5 69t68.5 166t-69 165.5t-166 68.5q-81 0 -146 -50z" />
<glyph unicode="&#xf610;" horiz-adv-x="2048" d="M1024 2048q208 0 397.5 -81t327 -218.5t218.5 -327t81 -397.5q0 -234 -99.5 -441.5t-274 -350.5t-394.5 -200v779h219l37 256h-256v225q0 116 112 116h163v238q-76 17 -184 17q-180 0 -275 -91.5t-95 -248.5v-256h-233v-256h233v-811q-205 4 -390 87t-319 219.5t-213 324
t-79 393.5q0 208 81 397.5t218.5 327t327 218.5t397.5 81z" />
<glyph unicode="&#xf611;" horiz-adv-x="2048" d="M1024 2048q209 0 398.5 -81t326.5 -218t218 -326.5t81 -398.5t-81 -398.5t-218 -326.5t-326.5 -218t-398.5 -81t-398.5 81t-326.5 218t-218 326.5t-81 398.5t81 398.5t218 326.5t326.5 218t398.5 81zM1647 1249q78 55 145 150q-81 -34 -168 -46q92 54 125 162
q-84 -50 -182 -71q-85 92 -211 92q-121 0 -205 -85t-84 -207q0 -37 7 -66q-179 9 -335.5 90t-266.5 216q-38 -71 -38 -147q0 -75 34.5 -138.5t93.5 -103.5q-69 0 -131 36v-3q0 -105 66 -185t167 -102q-31 -9 -76 -9q-27 0 -55 5q27 -87 101.5 -141t169.5 -56
q-171 -133 -361 -133q-15 0 -68 5q197 -128 445 -128q155 0 291 49t232.5 131.5t166 189.5t103.5 223.5t34 233.5v38z" />
<glyph unicode="&#xf612;" horiz-adv-x="2048" d="M1024 2048q209 0 398.5 -81t326.5 -218t218 -326.5t81 -398.5t-81 -398.5t-218 -326.5t-326.5 -218t-398.5 -81t-398.5 81t-326.5 218t-218 326.5t-81 398.5t81 398.5t218 326.5t326.5 218t398.5 81zM597 1365q77 0 124 43t47 107q-2 65 -48 107t-123 42q-76 0 -123 -42
t-47 -107q0 -64 46.5 -107t121.5 -43h2zM725 512v725h-256v-725h256zM1664 512v384q0 176 -81 280t-218 104q-76 0 -132 -41.5t-81 -112.5l-9 111h-254l7 -170v-555h256v384q0 79 33.5 125t92.5 46q63 0 96.5 -39t33.5 -132v-384h256z" />
<glyph unicode="&#xf613;" horiz-adv-x="2048" d="M1024 2048q209 0 398.5 -81t326.5 -218t218 -326.5t81 -398.5t-81 -398.5t-218 -326.5t-326.5 -218t-398.5 -81h-40q45 88 45 168q0 128 -45.5 212t-160.5 165q-52 37 -102 91.5t-50 91.5q0 47 21 79.5t90 86.5q76 59 120 137.5t44 167.5q0 115 -49 209t-138 128h184
l131 95h-583q-110 0 -213 -45t-178 -121q126 264 374 423.5t550 159.5zM1536 1280h256v128h-256v256h-128v-256h-256v-128h256v-256h128v256zM512 839q-112 4 -205.5 110.5t-112.5 254.5q-19 147 46 247.5t177 96.5q114 -4 207.5 -108.5t112.5 -251.5q19 -148 -47 -250.5
t-178 -98.5zM531 510h-100q-136 0 -263 -50q-168 258 -168 564q0 36 2 55q38 -134 152.5 -216.5t274.5 -82.5h52q-28 -58 -28 -109q0 -79 78 -161zM870 204q7 -27 7 -59q0 -75 -26 -131q-188 32 -349.5 128t-278.5 242q125 74 270 71q73 0 145 -24q14 -10 48.5 -33t47 -32
t38 -28t36 -31t26 -29.5t23.5 -35.5t13 -38z" />
<glyph unicode="&#xf614;" horiz-adv-x="2048" d="M1024 2048q209 0 398.5 -81t326.5 -218t218 -326.5t81 -398.5t-81 -398.5t-218 -326.5t-326.5 -218t-398.5 -81t-398.5 81t-326.5 218t-218 326.5t-81 398.5t81 398.5t218 326.5t326.5 218t398.5 81zM732 981l292 438l292 -438h-584zM1543 640h142l-661 996l-661 -996
h142l160 236h719z" />
<glyph unicode="&#xf615;" horiz-adv-x="2048" d="M1024 2048q208 0 397.5 -81t327 -218.5t218.5 -327t81 -397.5t-81 -397.5t-218.5 -327t-327 -218.5t-397.5 -81t-397.5 81t-327 218.5t-218.5 327t-81 397.5t81 397.5t218.5 327t327 218.5t397.5 81zM1306 299q51 0 97.5 22t80 61.5t47 95.5t-3.5 123q-40 -36 -73 -48
t-77 -12q-48 0 -88.5 7.5t-78.5 26t-60 31.5t-63 40q-52 32 -83.5 49t-92 38t-128.5 29q75 92 271.5 304t287.5 315q71 80 96.5 119.5t25.5 83.5q0 16 -1.5 29.5t-2.5 18.5l-2 6q-163 -33 -343 -33q-242 0 -326 60q-10 -11 -24.5 -30.5t-38.5 -67.5t-24 -84q0 -96 188 -96
q104 0 218 18q-92 -111 -235 -275t-246 -272q-80 -82 -102.5 -151t-1.5 -139q58 12 110 12q69 0 128 -12.5t111.5 -39t86 -48.5t81.5 -59q99 -73 143 -93q61 -29 123 -29z" />
<glyph unicode="&#xf616;" horiz-adv-x="2048" d="M1024 2048q208 0 397.5 -81t327 -218.5t218.5 -327t81 -397.5t-81 -397.5t-218.5 -327t-327 -218.5t-397.5 -81t-397.5 81t-327 218.5t-218.5 327t-81 397.5t81 397.5t218.5 327t327 218.5t397.5 81zM1697 1042q43 21 69 62.5t26 90.5q0 71 -50 120.5t-121 49.5
q-73 0 -123 -52q-170 117 -399 135l82 251l228 -51q6 -48 42.5 -80t84.5 -32q53 0 90.5 37.5t37.5 90.5t-37.5 90.5t-90.5 37.5q-71 0 -109 -60l-266 59q-16 4 -30.5 -4.5t-19.5 -23.5l-101 -312q-269 -5 -460 -138q-50 52 -123 52q-71 0 -121 -49.5t-50 -120.5
q0 -49 26 -90.5t69 -62.5q-10 -39 -10 -82q0 -133 91.5 -246.5t249 -179t342.5 -65.5t342.5 65.5t249 179t91.5 246.5q0 43 -10 82zM1259 1152q44 0 75 -31.5t31 -75.5q0 -43 -31.5 -74.5t-74.5 -31.5q-44 0 -75.5 31t-31.5 75t31.5 75.5t75.5 31.5zM683 1045q0 44 31 75.5
t75 31.5t75.5 -31.5t31.5 -75.5t-31.5 -75t-75.5 -31q-43 0 -74.5 31.5t-31.5 74.5zM1281 725q-107 -85 -257 -85t-258 85q-13 11 -15.5 28.5t8.5 31.5t28.5 16t31.5 -9q86 -67 205 -67t205 67q14 11 31.5 9t28.5 -16t8.5 -31.5t-16.5 -28.5z" />
<glyph unicode="&#xf617;" horiz-adv-x="2048" d="M1337 1550q106 0 181 -75t75 -181t-75 -181t-181 -75t-181 75t-75 181t74.5 181t181.5 75zM1337 1095q83 0 141 58.5t58 140.5t-58 140.5t-141 58.5t-141 -58.5t-58 -140.5t58 -140.5t141 -58.5zM1024 2048q208 0 397.5 -81t327 -218.5t218.5 -327t81 -397.5t-81 -397.5
t-218.5 -327t-327 -218.5t-397.5 -81q-236 0 -444.5 101t-351.5 277t-198 398l405 -174q22 -95 99 -156.5t177 -61.5q117 0 200 82.5t85 198.5l362 260q147 8 248 115t101 254q0 154 -108.5 262t-261.5 108t-261 -108t-109 -261l-255 -342h-1q-76 0 -141 -38l-561 242
q32 249 174 452.5t363.5 321t477.5 117.5zM711 498q71 0 121 50t50 120t-50 120.5t-121 50.5q-8 0 -24 -2q-11 -2 -21 5.5t-11 18.5q-1 12 6 21.5t18 11.5q20 2 32 2q95 0 161.5 -67t66.5 -161t-67 -160.5t-161 -66.5q-54 0 -103 25t-81 69q-7 9 -5 20.5t11 18.5
q10 7 21.5 5.5t18.5 -11.5q51 -70 138 -70z" />
<glyph unicode="&#xf618;" horiz-adv-x="2048" d="M1024 2048q209 0 398.5 -81t326.5 -218t218 -326.5t81 -398.5t-81 -398.5t-218 -326.5t-326.5 -218t-398.5 -81t-398.5 81t-326.5 218t-218 326.5t-81 398.5t81 398.5t218 326.5t326.5 218t398.5 81zM1024 341q185 0 342.5 91.5t249 249t91.5 342.5t-91.5 342.5t-249 249
t-342.5 91.5t-342.5 -91.5t-249 -249t-91.5 -342.5t91.5 -342.5t249 -249t342.5 -91.5zM1292 692q-117 -95 -268 -95t-268 95q-116 94 -148 237q-4 17 5.5 32t26.5 19t32 -5.5t19 -26.5q26 -114 119 -190q93 -75 214 -75t214 75q93 76 119 190q4 17 19 26.5t32 5.5t26.5 -19
t5.5 -32q-32 -143 -148 -237z" />
<glyph unicode="&#xf619;" horiz-adv-x="2048" d="M1024 2048q209 0 398.5 -81t326.5 -218t218 -326.5t81 -398.5t-81 -398.5t-218 -326.5t-326.5 -218t-398.5 -81t-398.5 81t-326.5 218t-218 326.5t-81 398.5t81 398.5t218 326.5t326.5 218t398.5 81zM1323 982h441v30q0 137 -77 224t-204 87q-125 0 -207.5 -87
t-82.5 -213q0 -135 84 -218t215 -83q142 0 232 84l-56 82q-31 -30 -75.5 -47t-88.5 -17q-78 0 -126 45t-55 113zM1482 1221q77 0 118 -46t44 -105h-322q4 59 45.5 105t114.5 46zM1125 736v414q0 86 -42.5 129.5t-121.5 43.5q-61 0 -115 -31.5t-80 -73.5q-15 48 -54.5 76.5
t-101.5 28.5q-59 0 -111.5 -29.5t-75.5 -61.5v76h-124v-572h124v401q22 31 58 53.5t75 22.5q93 0 93 -103v-374h125v401q19 31 56 53.5t76 22.5q95 0 95 -103v-374h124z" />
<glyph unicode="&#xf61a;" horiz-adv-x="2048" d="M1024 2048q209 0 398.5 -81t326.5 -218t218 -326.5t81 -398.5t-81 -398.5t-218 -326.5t-326.5 -218t-398.5 -81t-398.5 81t-326.5 218t-218 326.5t-81 398.5t81 398.5t218 326.5t326.5 218t398.5 81zM1553 803q-91 93 -103 109q-15 20 -15 34q0 19 24 54t96 128
q55 71 83.5 125.5t28.5 77.5q0 34 -55 34h-234q-33 0 -45 -28q-39 -103 -93 -189q-84 -139 -124 -139q-8 0 -15.5 5.5t-14.5 27t-7 56.5q0 47 2 122t2 87q0 39 -11.5 58.5t-50.5 30.5t-117 11q-45 0 -80 -5.5t-53 -12.5t-29.5 -16t-14.5 -15t-3 -10t8 -5t22.5 -6t26.5 -17
q18 -18 24.5 -53.5t6.5 -124.5q0 -136 -44 -136q-21 0 -53 37.5t-86 128.5q-22 38 -41 79t-29.5 65.5t-16.5 30.5q-20 18 -50 18h-182q-54 0 -54 -32q0 -6 8 -30q70 -157 164.5 -313.5t183.5 -245.5q69 -69 159.5 -108t172.5 -39h78q29 0 43.5 13t15.5 47q1 58 18 93t40 35
q16 0 36.5 -15t35 -31t47.5 -55q75 -87 152 -87h193q22 0 41.5 12.5t19.5 36.5q0 27 -22 58t-89 99z" />
<glyph unicode="&#xf61b;" horiz-adv-x="2048" d="M1024 2048q209 0 398.5 -81t326.5 -218t218 -326.5t81 -398.5t-81 -398.5t-218 -326.5t-326.5 -218t-398.5 -81t-398.5 81t-326.5 218t-218 326.5t-81 398.5t81 398.5t218 326.5t326.5 218t398.5 81zM1626 1093q20 -7 38.5 2.5t25.5 29.5q29 86 9.5 179t-83.5 164
q-63 71 -153 99t-180 9q-20 -5 -31.5 -22.5t-7.5 -37.5q4 -21 22 -32.5t38 -6.5q64 14 127.5 -6.5t109.5 -70.5t59.5 -116.5t-7.5 -126.5v-1q-6 -20 3.5 -38.5t29.5 -24.5zM384 864q0 -79 48 -147t127 -112t177.5 -68.5t202.5 -24.5q129 0 244.5 35t191 90t119.5 121t44 129
q0 69 -47 114.5t-113 66.5q-25 7 -25 19q0 4 10 32.5t10 56.5q0 48 -34.5 75t-94.5 27q-45 0 -90 -12t-74.5 -24t-39.5 -12q-12 0 -12 10q0 3 7.5 28.5t7.5 56.5q0 51 -28.5 79t-78.5 28q-58 0 -133 -35t-147.5 -95t-134 -132t-99.5 -154t-38 -152zM1464 1153q17 -6 33 2.5
t22 25.5q14 42 4.5 87t-40.5 80q-31 34 -74.5 47.5t-87.5 4.5q-18 -4 -28 -19t-6 -33q4 -17 19 -27t33 -6q48 10 79 -26q33 -36 18 -82q-6 -16 2.5 -32.5t25.5 -21.5zM949 1114q161 0 261.5 -71.5t100.5 -170.5q0 -75 -59 -141t-158.5 -105t-211.5 -39q-162 0 -264 72.5
t-102 169.5q0 75 60 141t160 105t213 39zM1080 772q33 74 -2 140.5t-116 87.5q-79 20 -156 -13.5t-112 -102.5q-35 -70 -4.5 -138.5t108.5 -93.5q82 -26 165.5 9t116.5 111zM941 884q10 -4 13 -13.5t-2 -19.5q-6 -10 -17 -14t-21 0t-12.5 13.5t2.5 19.5q15 22 37 14z
M858 849q26 -11 33 -36.5t-9 -51.5q-16 -25 -46 -34.5t-55 1.5q-25 12 -31.5 37.5t9.5 50.5t45 34.5t54 -1.5z" />
<glyph unicode="&#xf61c;" horiz-adv-x="2048" d="M1024 2048q209 0 398.5 -81t326.5 -218t218 -326.5t81 -398.5t-81 -398.5t-218 -326.5t-326.5 -218t-398.5 -81t-398.5 81t-326.5 218t-218 326.5t-81 398.5t81 398.5t218 326.5t326.5 218t398.5 81zM1555 1581q8 16 0 29q-8 11 -24 11h-187q-30 0 -49 -35
q-398 -705 -411 -728l262 -481q19 -36 52 -36h184q16 0 25 12q7 11 -1 29l-260 475v1zM682 725q31 0 50 36q191 337 198 350l-126 220q-19 34 -51 34h-184q-17 0 -25 -11q-7 -12 1 -28l124 -215v-1l-194 -344q-9 -14 0 -28q7 -13 23 -13h184z" />
<glyph unicode="&#xf620;" horiz-adv-x="2048" d="M1024 2048q209 0 398.5 -81t326.5 -218t218 -326.5t81 -398.5t-81 -398.5t-218 -326.5t-326.5 -218t-398.5 -81t-398.5 81t-326.5 218t-218 326.5t-81 398.5t81 398.5t218 326.5t326.5 218t398.5 81zM1451 384v220q-121 -35 -214 -35q-47 0 -77 6.5t-49 18.5t-28.5 38
t-12.5 55.5t-3 80.5v341h341v299h-341v341h-214q-7 -68 -22 -122t-39 -93.5t-50.5 -68.5t-66 -52t-75.5 -38.5t-88 -32.5v-216h216v-443q0 -192 89.5 -288t291.5 -96q96 0 181.5 21.5t123.5 42.5z" />
<glyph unicode="&#xf621;" horiz-adv-x="2048" d="M1524 1600q0 -18 2.5 -35t9.5 -36.5t11.5 -31.5t17.5 -35.5t17.5 -32t22 -36.5t21.5 -35q83 -144 83 -282q0 -41 -12.5 -100.5t-22.5 -93.5t-41 -135l-104 -342l-370 1100l119 10q19 2 29 16t8.5 29.5t-13.5 28t-31 11.5q-166 -14 -273 -14q-45 0 -112.5 3.5t-112.5 6.5
l-45 4q-26 1 -38.5 -19.5t-3.5 -42t35 -23.5q52 -7 109 -10l158 -436l-225 -673l-372 1109l119 10q19 2 29 16t8.5 29.5t-13.5 28t-31 11.5q-166 -14 -273 -14q-40 0 -62 2q142 212 367 336t489 124q194 0 371 -69.5t316 -195.5h-14q-72 0 -122.5 -56t-50.5 -127zM1922 1515
q126 -226 126 -491q0 -279 -138.5 -515t-371.5 -372l313 906q78 191 78 367q0 62 -7 105zM0 1024q0 211 85 412l486 -1332q-258 129 -414.5 375.5t-156.5 544.5zM1036 936l325 -879q-161 -57 -337 -57q-147 0 -289 40z" />
<glyph unicode="&#xf622;" horiz-adv-x="2048" d="M1024 2048q209 0 398.5 -81t326.5 -218t218 -326.5t81 -398.5t-81 -398.5t-218 -326.5t-326.5 -218t-398.5 -81t-398.5 81t-326.5 218t-218 326.5t-81 398.5t81 398.5t218 326.5t326.5 218t398.5 81zM1621 811v256q0 35 -25 60t-60 25h-64q-27 0 -45.5 25t-18.5 60
q0 158 -113 271t-271 113h-213q-160 0 -272 -112.5t-112 -271.5v-426q0 -161 111.5 -272.5t272.5 -111.5h426q159 0 271.5 112t112.5 272zM811 1152q-36 0 -61 25t-25 60q0 36 25 61t61 25h213q35 0 60 -25t25 -61q0 -35 -25 -60t-60 -25h-213zM1237 896q36 0 61 -25t25 -60
q0 -36 -25 -61t-61 -25h-426q-36 0 -61 25t-25 61q0 35 25 60t61 25h426z" />
<glyph unicode="&#xf624;" horiz-adv-x="2048" d="M1024 2048q208 0 397.5 -81t327 -218.5t218.5 -327t81 -397.5t-81 -397.5t-218.5 -327t-327 -218.5t-397.5 -81t-397.5 81t-327 218.5t-218.5 327t-81 397.5t81 397.5t218.5 327t327 218.5t397.5 81zM1481 431q-84 0 -141 90q131 83 206 223.5t75 310.5
q0 290 -155.5 449.5t-423.5 159.5q-266 0 -440.5 -172t-174.5 -437q0 -294 155 -461t422 -167q85 0 165 20q39 -70 104 -109t139 -39q55 0 99 18l-17 114h-13zM1023 1511q148 0 229 -113.5t81 -342.5q0 -230 -82 -354q-40 58 -97.5 90.5t-121.5 32.5q-47 0 -95 -21l19 -104
q4 0 11 1t9 1q44 0 75 -25.5t58 -83.5q-41 -12 -86 -12q-151 0 -229.5 111.5t-78.5 363.5q0 218 81 337t227 119z" />
<glyph unicode="&#xf630;" horiz-adv-x="2048" d="M1024 2048q209 0 398.5 -81t326.5 -218t218 -326.5t81 -398.5t-81 -398.5t-218 -326.5t-326.5 -218t-398.5 -81t-398.5 81t-326.5 218t-218 326.5t-81 398.5t81 398.5t218 326.5t326.5 218t398.5 81zM1024 555q322 0 416 12q127 16 172 74q43 54 49 194q3 53 3 189
q0 219 -13 287q-18 96 -82 133q-68 40 -261 46q-76 3 -284 3q-322 0 -416 -12q-127 -16 -172 -74q-43 -54 -49 -194q-3 -53 -3 -189q0 -219 13 -287q18 -96 82 -133q68 -40 261 -46q76 -3 284 -3zM853 768v512l427 -256z" />
<glyph unicode="&#xf631;" horiz-adv-x="2048" d="M1024 2048q209 0 398.5 -81t326.5 -218t218 -326.5t81 -398.5t-81 -398.5t-218 -326.5t-326.5 -218t-398.5 -81t-398.5 81t-326.5 218t-218 326.5t-81 398.5t81 398.5t218 326.5t326.5 218t398.5 81zM939 341q45 0 117.5 46t152.5 121.5t161.5 176.5t146.5 206t106 215.5
t41 199.5q0 104 -57 167t-144 63q-48 0 -101 -15t-108.5 -47.5t-101 -93.5t-66.5 -143q87 37 140.5 3.5t53.5 -102.5q0 -55 -48 -145t-106.5 -157.5t-87.5 -67.5q-67 0 -125 370q-3 18 -8 57.5t-8.5 66t-11.5 65t-16.5 65t-23.5 56t-32.5 47t-44 29.5t-57.5 12
q-48 0 -109.5 -33.5t-114.5 -82t-99 -96.5t-72 -82l-27 -33l52 -57q57 42 91.5 52.5t51.5 -2.5t28 -50l171 -555q12 -41 29 -78t47 -81t76.5 -70.5t103.5 -26.5z" />
<glyph unicode="&#xf632;" horiz-adv-x="2048" d="M0 1024q0 209 81 398.5t218 326.5t326.5 218t398.5 81t398.5 -81t326.5 -218t218 -326.5t81 -398.5t-81 -398.5t-218 -326.5t-326.5 -218t-398.5 -81t-398.5 81t-326.5 218t-218 326.5t-81 398.5zM711 640h-156v-213h967v413h-242v-200h-327v768h156v213h-554v-213h156
v-768z" />
<glyph unicode="&#xf633;" horiz-adv-x="2048" d="M1024 2048q208 0 397.5 -81t327 -218.5t218.5 -327t81 -397.5t-81 -397.5t-218.5 -327t-327 -218.5t-397.5 -81t-397.5 81t-327 218.5t-218.5 327t-81 397.5t81 397.5t218.5 327t327 218.5t397.5 81zM1294 1480q95 0 95 -104q0 -75 -25 -260h190q25 183 25 269
q0 114 -77.5 198t-207.5 84t-206 -82t-76 -200q0 -151 67.5 -282.5t192.5 -205.5q-93 -197 -260 -341q-177 145 -275 385t-98 533h-190q0 -362 136.5 -654.5t377.5 -459.5q34 -19 52 -19q27 0 55 22q247 182 380 468q60 -11 129 -9v159q-171 0 -274 115t-103 280
q0 104 92 104z" />
<glyph unicode="&#xf640;" horiz-adv-x="2048" d="M1024 2048q209 0 398.5 -81t326.5 -218t218 -326.5t81 -398.5t-81 -398.5t-218 -326.5t-326.5 -218t-398.5 -81t-398.5 81t-326.5 218t-218 326.5t-81 398.5t81 398.5t218 326.5t326.5 218t398.5 81zM1451 683q141 0 241 99.5t100 241.5q0 140 -100.5 240.5t-240.5 100.5
q-142 0 -242 -100t-100 -241q0 -142 99.5 -241.5t242.5 -99.5zM597 683q141 0 241.5 99.5t100.5 241.5q0 140 -100.5 240.5t-241.5 100.5t-241 -100t-100 -241q0 -142 99.5 -241.5t241.5 -99.5z" />
<glyph unicode="&#xf641;" horiz-adv-x="2048" d="M1024 2048q208 0 397.5 -81t327 -218.5t218.5 -327t81 -397.5t-81 -397.5t-218.5 -327t-327 -218.5t-397.5 -81t-397.5 81t-327 218.5t-218.5 327t-81 397.5t81 397.5t218.5 327t327 218.5t397.5 81zM1621 597v854q0 71 -49.5 120.5t-120.5 49.5h-854q-71 0 -120.5 -49.5
t-49.5 -120.5v-854q0 -71 49.5 -120.5t120.5 -49.5h854q71 0 120.5 49.5t49.5 120.5zM1451 1493q17 0 29.5 -12.5t12.5 -29.5v-128q0 -18 -12.5 -30.5t-29.5 -12.5h-128q-18 0 -30.5 12.5t-12.5 30.5v128q0 17 12.5 29.5t30.5 12.5h128zM1024 811q-88 0 -150.5 62.5
t-62.5 150.5t62.5 150.5t150.5 62.5t150.5 -62.5t62.5 -150.5t-62.5 -150.5t-150.5 -62.5zM1365 1024q0 46 -10 85h138v-512q0 -17 -12.5 -29.5t-29.5 -12.5h-854q-17 0 -29.5 12.5t-12.5 29.5v512h138q-10 -39 -10 -85q0 -141 99.5 -241t241.5 -100t241.5 100t99.5 241z
" />
<glyph unicode="&#xf642;" horiz-adv-x="2048" d="M1024 2048q208 0 397.5 -81t327 -218.5t218.5 -327t81 -397.5t-81 -397.5t-218.5 -327t-327 -218.5t-397.5 -81t-397.5 81t-327 218.5t-218.5 327t-81 397.5t81 397.5t218.5 327t327 218.5t397.5 81zM1429 640q163 0 263 112.5t100 276.5q0 165 -97 272t-263 107
q-65 0 -123.5 -20t-110 -59t-89.5 -77t-84 -93q-50 59 -86.5 96t-88.5 76t-110.5 58t-125.5 19q-164 0 -261 -109.5t-97 -273.5q0 -168 101.5 -276.5t265.5 -108.5q63 0 117 16.5t103.5 52.5t82 66t83.5 84q11 11 16 17q93 -108 190.5 -172t213.5 -64zM1427 1199
q76 0 122 -51t46 -125q0 -75 -43 -124t-118 -49q-82 0 -150 47t-132 122q38 40 58.5 60.5t60.5 54t78.5 49.5t77.5 16zM614 1199q114 0 284 -180q-60 -70 -134.5 -119.5t-142.5 -49.5q-77 0 -122 47t-45 124q0 72 45 125t115 53z" />
<glyph unicode="&#xf643;" horiz-adv-x="2048" d="M1024 2048q209 0 398.5 -81t326.5 -218t218 -326.5t81 -398.5t-81 -398.5t-218 -326.5t-326.5 -218t-398.5 -81t-398.5 81t-326.5 218t-218 326.5t-81 398.5t81 398.5t218 326.5t326.5 218t398.5 81zM1024 1497q44 0 74.5 30.5t30.5 74.5t-30.5 74.5t-74.5 30.5
t-74.5 -30.5t-30.5 -74.5t30.5 -74.5t74.5 -30.5zM1313 1208q43 0 74 31t31 74t-31 74t-74 31t-74 -31t-31 -74t31 -74t74 -31zM735 1208q43 0 74 31t31 74t-31 74t-74 31t-74 -31t-31 -74t31 -74t74 -31zM446 919q44 0 74.5 30.5t30.5 74.5t-30.5 74.5t-74.5 30.5
t-74.5 -30.5t-30.5 -74.5t30.5 -74.5t74.5 -30.5zM1602 919q44 0 74.5 30.5t30.5 74.5t-30.5 74.5t-74.5 30.5t-74.5 -30.5t-30.5 -74.5t30.5 -74.5t74.5 -30.5zM1024 919q44 0 74.5 30.5t30.5 74.5t-30.5 74.5t-74.5 30.5t-74.5 -30.5t-30.5 -74.5t30.5 -74.5t74.5 -30.5z
M1313 630q43 0 74 31t31 74t-31 74t-74 31t-74 -31t-31 -74t31 -74t74 -31zM735 630q43 0 74 31t31 74t-31 74t-74 31t-74 -31t-31 -74t31 -74t74 -31zM1024 341q44 0 74.5 30.5t30.5 74.5t-30.5 74.5t-74.5 30.5t-74.5 -30.5t-30.5 -74.5t30.5 -74.5t74.5 -30.5z" />
<glyph unicode="&#xf650;" horiz-adv-x="2048" d="M1024 2048q209 0 398.5 -81t326.5 -218t218 -326.5t81 -398.5t-81 -398.5t-218 -326.5t-326.5 -218t-398.5 -81q-154 0 -292 43q75 112 105 218l71 282q27 -53 98.5 -90.5t152.5 -37.5q162 0 288.5 91.5t195 251t68.5 358.5q0 114 -47 220t-130 188t-205.5 131t-264.5 49
q-141 0 -262.5 -38.5t-206.5 -102.5t-145.5 -147.5t-89 -173t-28.5 -178.5q0 -139 52.5 -244.5t155.5 -146.5q40 -15 53 26q3 11 21 81q4 20 1 30t-18 27q-66 83 -66 201q0 97 35.5 186t99.5 156.5t160.5 108t209.5 40.5q201 0 312.5 -109.5t111.5 -284.5q0 -147 -40 -270
t-115 -197.5t-170 -74.5q-81 0 -130.5 58t-30.5 138q11 47 35.5 125.5t39.5 137.5t15 100q0 67 -35.5 110.5t-101.5 43.5q-82 0 -139.5 -76.5t-57.5 -188.5q0 -44 8 -84.5t16 -58.5l9 -19q-114 -474 -132 -559q-26 -105 -17 -235q-276 121 -445 374.5t-169 564.5
q0 209 81 398.5t218 326.5t326.5 218t398.5 81z" />
<glyph unicode="&#xf653;" horiz-adv-x="2048" d="M1024 2048q209 0 398.5 -81t326.5 -218t218 -326.5t81 -398.5t-81 -398.5t-218 -326.5t-326.5 -218t-398.5 -81t-398.5 81t-326.5 218t-218 326.5t-81 398.5t81 398.5t218 326.5t326.5 218t398.5 81zM1339 616l453 297l-313 248l313 252l-453 294l-315 -263l-315 263
l-453 -294l313 -252l-313 -248l453 -297l315 263zM1024 1444l455 -283l-455 -282l-455 282zM1477 550v85l-140 -87l-313 258l-311 -258l-142 87v-85l453 -270z" />
<glyph unicode="&#xf654;" horiz-adv-x="2048" d="M1024 2048q208 0 397.5 -81t327 -218.5t218.5 -327t81 -397.5t-81 -397.5t-218.5 -327t-327 -218.5t-397.5 -81t-397.5 81t-327 218.5t-218.5 327t-81 397.5t81 397.5t218.5 327t327 218.5t397.5 81zM1656 392q18 20 1 38l-420 511l234 234q16 16 4 34q-11 20 -32 13
l-212 -58l-434 373l29 30q17 17 17 40t-17 40q-16 17 -40 17t-40 -17l-345 -345q-17 -16 -17 -40t17 -40q16 -17 40 -17t40 17l30 29l373 -434l-58 -212q-7 -21 13 -32q7 -4 14 -4q12 0 20 8l234 234l511 -420q7 -7 18 -7q10 0 20 8z" />
<glyph unicode="&#xf655;" horiz-adv-x="2048" d="M0 1024q0 208 81 397.5t218.5 327t327 218.5t397.5 81t397.5 -81t327 -218.5t218.5 -327t81 -397.5t-81 -397.5t-218.5 -327t-327 -218.5t-397.5 -81t-397.5 81t-327 218.5t-218.5 327t-81 397.5zM1024 1621h-597v-597h597v-597h597v597h-597v597z" />
<glyph unicode="&#xf656;" horiz-adv-x="2048" d="M1024 2048q209 0 398.5 -81t326.5 -218t218 -326.5t81 -398.5t-81 -398.5t-218 -326.5t-326.5 -218t-398.5 -81t-398.5 81t-326.5 218t-218 326.5t-81 398.5t81 398.5t218 326.5t326.5 218t398.5 81zM1693 837q48 47 48 115t-48 115l-554 554q-47 48 -115 48t-115 -48
l-554 -554q-48 -47 -48 -115t48 -115l368 -368q17 -18 47 -30t54 -12h400q24 0 54 12t47 30zM1113 1342q9 -8 9 -20.5t-9 -20.5l-405 -406q-7 -7 -17 -7h-76q-9 0 -16 7l-41 41q-8 8 -8 20.5t8 20.5l439 440q9 8 21.5 8t20.5 -8zM1065 1070l74 -74q9 -8 9 -20.5t-9 -21.5
l-245 -245q-7 -7 -17 -7h-76q-11 0 -16 7l-41 41q-9 8 -9 20.5t9 21.5l279 278q8 9 20.5 9t21.5 -9zM1032 694l74 -74q9 -9 9 -21.5t-9 -20.5l-40 -41q-7 -7 -17 -7h-76q-11 0 -16 7l-41 41q-9 8 -9 20.5t9 21.5l74 74q9 8 21.5 8t20.5 -8z" />
<glyph unicode="&#xf660;" horiz-adv-x="2048" d="M1024 2048q208 0 397.5 -81t327 -218.5t218.5 -327t81 -397.5t-81 -397.5t-218.5 -327t-327 -218.5t-397.5 -81t-397.5 81t-327 218.5t-218.5 327t-81 397.5t81 397.5t218.5 327t327 218.5t397.5 81zM1024 1707q-85 0 -170 -22q151 -189 265 -401q221 87 361 248
q-92 83 -209.5 129t-246.5 46zM737 1644q-146 -68 -247.5 -196t-134.5 -288q392 8 652 85q-116 213 -270 399zM1230 1048q223 38 477 -21q-1 243 -155 430q-149 -170 -386 -266q28 -59 64 -143zM341 1024q0 -132 47.5 -250.5t133.5 -212.5q217 330 540 444q10 3 28 9l24 8
q-27 63 -59 130q-290 -90 -713 -96q0 -6 -0.5 -16t-0.5 -16zM1400 454q120 80 199 201.5t100 266.5q-229 55 -431 27q84 -231 132 -495zM1024 341q139 0 268 55q-50 289 -140 528q-334 -93 -552 -435q185 -148 424 -148z" />
<glyph unicode="&#xf661;" horiz-adv-x="2048" d="M1024 2048q209 0 398.5 -81t326.5 -218t218 -326.5t81 -398.5t-81 -398.5t-218 -326.5t-326.5 -218t-398.5 -81t-398.5 81t-326.5 218t-218 326.5t-81 398.5t81 398.5t218 326.5t326.5 218t398.5 81zM732 597q89 0 154 22t100.5 60.5t52 83t16.5 97.5q0 47 -14 85.5
t-33.5 59.5t-39.5 35.5t-34 19.5l-14 4q52 27 75 63q31 46 31 115q0 107 -72 166t-193 59h-420v-870h391zM1256 1451v-86h377v86h-377zM853 1221q0 -97 -128 -97h-185v192h164q78 0 113.5 -19.5t35.5 -75.5zM1297 872h452v41q0 157 -80 245.5t-228 88.5q-138 0 -224 -86
t-86 -248q0 -157 86 -242.5t229 -85.5q112 0 193 56.5t101 147.5h-166q-1 -3 -3.5 -7.5t-12.5 -17t-23 -22t-35.5 -17t-48.5 -7.5q-66 0 -110 40.5t-44 113.5zM1441 1112q60 0 100 -37.5t40 -93.5h-282q6 57 42.5 94t99.5 37zM728 979q142 0 142 -107q0 -59 -32.5 -91
t-112.5 -32h-185v230h188z" />
<glyph unicode="&#xf670;" horiz-adv-x="2048" d="M1024 2048q208 0 397.5 -81.5t326.5 -218.5t218.5 -326.5t81.5 -397.5q0 -234 -100 -441.5t-274.5 -351t-393.5 -200.5v268q0 76 -24.5 149.5t-82.5 118.5q140 21 249.5 79.5t175.5 156.5t66 221q0 161 -119 294q44 195 -9 303q-129 -11 -296 -113q-117 28 -216 28
t-216 -28q-167 102 -296 113q-56 -113 -9 -303q-119 -133 -119 -294q0 -123 66 -221t175.5 -156.5t249.5 -79.5q-55 -42 -83 -117q-44 -1 -89 8t-82 23.5t-71.5 32t-60.5 35.5t-45.5 33t-29.5 24l-11 10q-17 17 -33 5q-19 -11 -14 -33q5 -13 7 -18t20 -38t35.5 -56.5t53 -62
t75 -67t97.5 -59t124 -50.5v-206q-219 57 -393.5 200.5t-274.5 351t-100 441.5q0 208 81 397.5t218 326.5t326.5 218.5t398.5 81.5z" />
<glyph unicode="&#xf672;" horiz-adv-x="2048" d="M1024 2048q209 0 398.5 -81t326.5 -218t218 -326.5t81 -398.5t-81 -398.5t-218 -326.5t-326.5 -218t-398.5 -81t-398.5 81t-326.5 218t-218 326.5t-81 398.5t81 398.5t218 326.5t326.5 218t398.5 81zM1135 1956l-120 -121l483 -484l121 121zM860 1612l-73 -154l619 -289
l73 156zM725 1256l-30 -168l673 -119l28 169zM1621 512v512h-170v-341h-854v341h-170v-512h1194zM683 939v-171h682v171h-682z" />
<glyph unicode="&#xf673;" horiz-adv-x="2048" d="M1024 2048q209 0 398.5 -81t326.5 -218t218 -326.5t81 -398.5t-81 -398.5t-218 -326.5t-326.5 -218t-398.5 -81t-398.5 81t-326.5 218t-218 326.5t-81 398.5t81 398.5t218 326.5t326.5 218t398.5 81zM1536 1312v53q0 71 -50 121t-121 50h-682q-71 0 -121 -50t-50 -121
v-53h1024zM1536 1056v192h-1024v-192h1024zM1536 800v192h-1024v-192h1024zM1536 683v53h-1024v-53q0 -71 50 -121t121 -50h426v-213l214 213h42q71 0 121 50t50 121z" />
<glyph unicode="&#xf674;" horiz-adv-x="2048" d="M1024 2048q209 0 398.5 -81t326.5 -218t218 -326.5t81 -398.5t-81 -398.5t-218 -326.5t-326.5 -218t-398.5 -81t-398.5 81t-326.5 218t-218 326.5t-81 398.5t81 398.5t218 326.5t326.5 218t398.5 81zM1024 719q118 0 217.5 26.5t151 61.5t57.5 68q86 496 86 521
q0 70 -150 120t-362 50t-362 -50t-150 -120q0 -11 21.5 -141.5t42.5 -254.5l22 -125q6 -33 57.5 -68t151 -61.5t217.5 -26.5zM1024 1483q135 0 231.5 -20.5t96.5 -49.5t-96 -49.5t-232 -19.5q-136 0 -232 20.5t-96 49.5t96 49.5t232 19.5zM1024 1159q68 0 115.5 -47.5
t47.5 -115.5t-47.5 -115.5t-115.5 -47.5t-115.5 47.5t-47.5 115.5t47.5 115.5t115.5 47.5zM1024 915q34 0 57.5 23.5t23.5 57.5t-23.5 58t-57.5 24t-58 -24t-24 -58t24 -57.5t58 -23.5zM1410 710v4q0 20 -18 20l-14 -6q-5 -4 -15 -10.5t-44 -24t-72 -30.5t-98.5 -23.5
t-124.5 -10.5t-124 10t-100 24.5t-70.5 29.5t-45.5 25l-14 10q-6 6 -14 6q-18 0 -18 -20v-4q35 -183 37 -191q13 -58 112.5 -96.5t236.5 -38.5q135 0 236 39q101 38 113 96q2 8 37 191z" />
<glyph unicode="&#xf675;" horiz-adv-x="2048" d="M1024 2048q209 0 398.5 -81t326.5 -218t218 -326.5t81 -398.5t-81 -398.5t-218 -326.5t-326.5 -218t-398.5 -81t-398.5 81t-326.5 218t-218 326.5t-81 398.5t81 398.5t218 326.5t326.5 218t398.5 81zM1024 391q16 0 30 9l579 386h1l2 2l3 3l1 1q2 0 2 1t4 5q2 2 2 4l2 2
l1 2l1 2l1 2q1 2 1 4q1 1 1 3q1 2 1 5q1 1 1 2v400l-1 2q0 3 -1 5q0 2 -1 3q0 2 -1 4q-1 1 -1 2t-1 2l-1 2l-2 2q0 2 -6 9q0 1 -1 1t-2 1l-3 3l-2 2h-1l-579 386q-30 20 -60 0l-579 -386h-1l-2 -2l-3 -3l-1 -1q-2 0 -2 -1t-4 -5q-2 -2 -2 -4l-2 -2l-1 -2q-1 -1 -1 -2l-1 -2
q-1 -2 -1 -4q-1 -1 -1 -3q-1 -2 -1 -5q-1 -1 -1 -2v-400l1 -2q0 -3 1 -5q0 -2 1 -3q0 -2 1 -4q1 -1 1 -2l1 -2l1 -2l2 -2q0 -2 6 -9q0 -1 1 -1t2 -1l3 -3l2 -2h1l579 -386q14 -9 30 -9zM1505 1217l-191 -128l-236 158v254zM970 1247l-236 -158l-191 128l427 284v-254z
M1024 1153l192 -129l-192 -129l-192 129zM1548 933l-136 91l136 91v-182zM500 1115l136 -91l-136 -91v182zM543 831l191 128l236 -158v-254zM1078 801l236 158l191 -128l-427 -284v254z" />
<glyph unicode="&#xf676;" horiz-adv-x="2048" d="M1024 2048q209 0 398.5 -81t326.5 -218t218 -326.5t81 -398.5t-81 -398.5t-218 -326.5t-326.5 -218t-398.5 -81t-398.5 81t-326.5 218t-218 326.5t-81 398.5t81 398.5t218 326.5t326.5 218t398.5 81zM1420 640q107 0 182.5 74t75.5 179q0 78 -43.5 142t-114.5 93
q0 4 0.5 11.5t0.5 11.5q0 159 -114.5 271t-275.5 112q-114 0 -208.5 -60t-142.5 -158q-48 37 -109 37q-75 0 -127.5 -51.5t-52.5 -125.5q0 -26 8 -53q-59 -34 -94 -93.5t-35 -129.5q0 -106 76 -182t183 -78h791zM1231 1124q82 0 134 -47t52 -121q0 -73 -53 -120t-132 -47
q-113 0 -189 98l-60 70q-27 36 -61 56.5t-64 20.5q-34 0 -59 -22t-25 -55q0 -32 24 -55t61 -23q49 0 91 42l59 -69q-67 -63 -153 -63q-83 0 -135 47t-52 122q0 72 52.5 119t133.5 47q109 0 188 -97l60 -70q60 -78 124 -78q37 0 60.5 22.5t23.5 56.5q0 29 -22.5 52.5
t-61.5 23.5q-49 0 -91 -41l-60 69q65 62 155 62z" />
<glyph unicode="&#xf680;" horiz-adv-x="2048" d="M1024 2048q209 0 398.5 -81t326.5 -218t218 -326.5t81 -398.5t-81 -398.5t-218 -326.5t-326.5 -218t-398.5 -81t-398.5 81t-326.5 218t-218 326.5t-81 398.5t81 398.5t218 326.5t326.5 218t398.5 81zM774 512l55 347q3 16 15.5 26.5t29.5 10.5h119q73 0 134 16.5
t102.5 42.5t74 62.5t51.5 73t31 76.5t16.5 71t4.5 59q0 115 -84 177t-246 62h-357q-17 0 -30 -11.5t-15 -27.5l-154 -957q-2 -11 5.5 -19.5t18.5 -8.5h229zM1205 662q69 0 126 15t95 39t67 57.5t44.5 66t25.5 70t13 64.5t3 53q0 122 -97 173q-9 -52 -29 -102.5t-59.5 -103.5
t-92 -92t-132.5 -64t-176 -25h-85l-71 -443q-2 -11 5.5 -19.5t18.5 -8.5h189q17 0 30.5 11.5t15.5 27.5l39 242q2 16 15 27.5t30 11.5h25z" />
<glyph unicode="&#xf681;" horiz-adv-x="2048" d="M1024 2048q209 0 398.5 -81t326.5 -218t218 -326.5t81 -398.5t-81 -398.5t-218 -326.5t-326.5 -218t-398.5 -81t-398.5 81t-326.5 218t-218 326.5t-81 398.5t81 398.5t218 326.5t326.5 218t398.5 81zM1505 472q64 51 72 133.5t-43 145.5l-273 299l235 282q49 66 37 146.5
t-78 130.5q-65 48 -146 37t-129 -77l-241 -327v230q0 80 -56 136t-136 56t-136 -56t-56 -136v-896q0 -80 56 -136t136 -56t136 56t56 136v261l289 -342q54 -60 134 -67t143 44z" />
<glyph unicode="&#xf682;" horiz-adv-x="2048" d="M1024 2048q208 0 397.5 -81t327 -218.5t218.5 -327t81 -397.5t-81 -397.5t-218.5 -327t-327 -218.5t-397.5 -81t-397.5 81t-327 218.5t-218.5 327t-81 397.5t81 397.5t218.5 327t327 218.5t397.5 81zM1505 418l42 361h-60q-33 -92 -59 -144.5t-58 -80t-63 -35t-85 -7.5
h-259q-110 0 -110 106v369h69h94.5t65.5 -3.5t48.5 -8t28.5 -16.5t21.5 -26t10.5 -40.5t13 -55.5q2 -15 4 -23h68q-4 85 -4 215q0 122 8 225h-68q-2 -9 -5 -27q-9 -48 -13 -67t-16.5 -42.5t-26.5 -28.5t-46.5 -12t-71 -7h-106.5h-74v439q0 16 6 21.5t22 5.5h367
q62 0 96 -51.5t64 -193.5h64l21 348q-162 -18 -472 -18q-325 0 -552 11v-79q74 -9 108.5 -21t45 -29t11.5 -53q6 -108 6 -423q0 -336 -4 -427q-2 -52 -30.5 -71.5t-134.5 -30.5v-80q115 8 507 8q296 0 527 -8z" />
<glyph unicode="&#xf683;" horiz-adv-x="2048" d="M1024 2048q209 0 398.5 -81t326.5 -218t218 -326.5t81 -398.5t-81 -398.5t-218 -326.5t-326.5 -218t-398.5 -81t-398.5 81t-326.5 218t-218 326.5t-81 398.5t81 398.5t218 326.5t326.5 218t398.5 81zM1186 469l380 82l-135 915q0 6 -3 7q-3 3 -9 3l-98 7l-73 73
q-5 4 -15 4q-7 0 -11 -1l-38 -12q-18 55 -49.5 89t-74.5 34q-6 0 -12 -1q-27 38 -71 38q-73 0 -144 -75.5t-106 -225.5l-123 -39q-14 -5 -19 -10t-6 -17l-96 -739zM1002 1657q-98 -45 -129 -207l-98 -30q32 122 90 183t111 61q15 0 26 -7zM1070 1627q49 -3 75 -92l-59 -18
q0 62 -16 110zM922 1466q12 55 40.5 96.5t65.5 56.5q16 -44 16 -115zM711 1058q0 94 67.5 160t181.5 66q58 0 96 -18l-47 -140q-49 22 -87 22q-81 0 -81 -58q0 -13 8.5 -25t16 -19t28.5 -21.5t29 -20.5q84 -62 84 -148q0 -90 -49 -143t-130 -53q-51 0 -99.5 20t-78.5 55
l32 106q70 -54 118 -54q21 0 34 13t13 35q0 38 -54 79q-82 63 -82 144z" />
<glyph unicode="&#xf690;" horiz-adv-x="2048" d="M1024 2048q209 0 398.5 -81t326.5 -218t218 -326.5t81 -398.5t-81 -398.5t-218 -326.5t-326.5 -218t-398.5 -81t-398.5 81t-326.5 218t-218 326.5t-81 398.5t81 398.5t218 326.5t326.5 218t398.5 81zM1552 1450q18 86 -8 128.5t-103 42.5h-716q-67 0 -97.5 -38t-30.5 -83
v-1137q0 -62 45 -79q9 -8 38.5 -5t47.5 23q338 393 344 398q8 9 17 9h219q32 0 55 10t35 29t16.5 31.5t9.5 33.5zM1363 1473q17 0 28.5 -13t7.5 -32l-30 -157q-3 -13 -16.5 -24t-28.5 -11h-279q-24 0 -39 -14.5t-15 -38.5v-34q0 -23 15.5 -38t38.5 -15h237q17 0 30 -15.5
t9 -32.5q-2 -11 -15 -79t-15 -75q-3 -12 -14.5 -23.5t-29.5 -11.5h-193q-26 0 -39 -6t-30 -28l-235 -284q-5 -3 -5 1v888q0 16 12.5 29.5t31.5 13.5h574z" />
<glyph unicode="&#xf691;" horiz-adv-x="2048" d="M1024 2048q208 0 397.5 -81t327 -218.5t218.5 -327t81 -397.5t-81 -397.5t-218.5 -327t-327 -218.5t-397.5 -81t-397.5 81t-327 218.5t-218.5 327t-81 397.5t81 397.5t218.5 327t327 218.5t397.5 81zM645 1720q-62 -24 -62 -56q0 -28 32 -73l278 -381q36 -50 73 -50
q63 0 63 93l-3 457q0 60 -20 89.5t-53 29.5q-14 0 -55 -15zM1155 1110q-16 -24 -16 -44q0 -23 14 -36.5t38 -13.5q19 0 51 10l296 87q82 24 82 68q0 19 -7.5 34t-28.5 39l-133 159q-18 21 -29.5 29t-26.5 8q-12 0 -21.5 -6t-15 -12.5t-13.5 -19.5zM460 810q22 0 75 11
l316 71q58 13 58 66q0 39 -46 62l-290 147q-43 23 -70 23q-51 0 -57 -71l-18 -232q-3 -40 3.5 -58.5t28.5 -18.5zM1603 683q18 25 18 51q0 32 -49 46l-330 107q-29 9 -41 9q-22 0 -37 -15.5t-15 -35.5q0 -18 11 -37l174 -294q22 -36 37 -49.5t36 -13.5q35 0 61 36zM1024 404
l5 367q1 23 -13 39t-39 16q-27 0 -56 -32l-234 -261q-25 -27 -25 -55q0 -24 13.5 -38t44.5 -24l201 -64q36 -11 52 -11q27 0 39 15t12 48z" />
<glyph unicode="&#xf692;" horiz-adv-x="2048" d="M1024 2048q209 0 398.5 -81t326.5 -218t218 -326.5t81 -398.5t-81 -398.5t-218 -326.5t-326.5 -218t-398.5 -81t-398.5 81t-326.5 218t-218 326.5t-81 398.5t81 398.5t218 326.5t326.5 218t398.5 81zM1234 1621q-67 0 -116.5 -65t-49.5 -156t34 -161q111 53 161 125.5
t50 144.5q0 49 -20.5 80.5t-58.5 31.5zM384 1365q0 -95 91.5 -179t232.5 -84q149 0 309 82q-61 156 -176 248.5t-243 92.5q-94 0 -154 -45.5t-60 -114.5zM1271 414q44 0 98.5 21t83.5 48q-71 24 -139 106t-112.5 203.5t-44.5 243.5q0 86 27 129q-114 -35 -176.5 -113
t-62.5 -187q0 -68 21.5 -144.5t60 -146t103 -115t141.5 -45.5zM1519 587q55 0 82 60.5t27 146.5q0 65 -19 125.5t-48.5 103.5t-64.5 75t-68 48t-58 16q-42 0 -68 -35t-26 -99q0 -102 42 -207.5t98.5 -169.5t102.5 -64zM753 470q43 -19 122 -42t141 -34q-75 81 -123.5 195
t-52.5 246q-50 -83 -95 -191t-45 -129q0 -12 11.5 -22t41.5 -23z" />
<glyph unicode="&#xf6a0;" horiz-adv-x="2048" d="M1024 2048q209 0 398.5 -81t326.5 -218t218 -326.5t81 -398.5t-81 -398.5t-218 -326.5t-326.5 -218t-398.5 -81t-398.5 81t-326.5 218t-218 326.5t-81 398.5t81 398.5t218 326.5t326.5 218t398.5 81zM1344 325q157 0 268 111t111 268q0 122 -66 213q7 50 7 107
q0 130 -51 248.5t-136.5 204t-204 136.5t-248.5 51q-57 0 -107 -7q-91 66 -213 66q-157 0 -268 -111t-111 -268q0 -121 66 -216q-7 -46 -7 -104q0 -130 51 -248.5t136.5 -204t204 -136.5t248.5 -51q58 0 104 7q95 -66 216 -66zM1102 1109q35 -7 65 -16t73 -28.5t73 -44
t52 -64.5t22 -88q0 -124 -104 -197.5t-247 -73.5q-153 0 -264 60.5t-111 143.5q0 41 22.5 68t67.5 27q33 0 62 -22t50.5 -48t64 -48t98.5 -22q60 0 96.5 23.5t36.5 59.5q0 26 -17.5 42.5t-35 22t-66.5 17.5q-7 2 -11 3l-133 34q-114 28 -174.5 81t-60.5 158q0 66 30.5 117
t81 80t108 43t119.5 14q136 0 241 -49t105 -124q0 -42 -25.5 -71t-68.5 -29q-24 0 -44 10.5t-36 26t-35 31t-49.5 26t-70.5 10.5q-130 0 -130 -68q0 -37 28.5 -52.5t91.5 -28.5z" />
<glyph unicode="&#xf6a2;" horiz-adv-x="2048" d="M1024 2048q209 0 398.5 -81t326.5 -218t218 -326.5t81 -398.5t-81 -398.5t-218 -326.5t-326.5 -218t-398.5 -81t-398.5 81t-326.5 218t-218 326.5t-81 398.5t81 398.5t218 326.5t326.5 218t398.5 81zM1351 865q31 -15 34 -22q4 -2 0.5 -29t-14.5 -55q-11 -29 -53 -54
t-70 -26q-1 0 -20.5 -3t-32 -1t-54.5 15.5t-105 40.5q-26 11 -51.5 26.5t-47 31.5t-42.5 35t-38 36.5t-33 36t-27.5 33.5t-22 30.5t-16.5 25t-12 18.5l-5 8q-69 103 -66 187q1 40 17 75t24.5 44t26.5 27q21 21 48 21q1 0 14.5 -1.5t20.5 -1.5h4.5h5t5.5 -1t6 -3t5.5 -5
t6.5 -9t6 -13q46 -129 50 -135q7 -16 0 -31q-9 -18 -19 -29q-23 -26 -28 -30q-19 -19 -9 -36q39 -74 94 -127q19 -18 38 -33t35.5 -25.5t28 -16.5t24 -12t14.5 -7q24 -13 39 3q40 40 59 67q9 12 19.5 13t21.5 -5q46 -20 119 -63zM1024 384q130 0 248.5 51t204 136.5
t136.5 204t51 248.5t-51 248.5t-136.5 204t-204 136.5t-248.5 51t-248.5 -51t-204 -136.5t-136.5 -204t-51 -248.5q0 -191 105 -352l-99 -294l304 97q152 -91 330 -91z" />
<glyph unicode="&#xf6b0;" horiz-adv-x="2048" d="M1024 2048q208 0 397.5 -81.5t326.5 -218.5t218.5 -326.5t81.5 -397.5q0 -209 -81.5 -398.5t-218.5 -326.5t-326.5 -218t-397.5 -81q-209 0 -398.5 81t-326.5 218t-218 326.5t-81 398.5q0 208 81 397.5t218 326.5t326.5 218.5t398.5 81.5zM1195 1640q-86 24 -192 24
q-134 0 -257 -51t-211.5 -136.5t-141 -204t-52.5 -248.5t52.5 -248.5t141 -204t211.5 -136.5t257 -51t256.5 50.5t211 136.5t141 204.5t52.5 248.5q0 29 -5 69q51 23 92 53.5t63.5 57t37 52t19 39t4.5 18.5q7 16 -7 36q-12 16 -33 16q-54 0 -100.5 9.5t-94.5 32t-75.5 39
t-83.5 52.5q-91 60 -158 93v-503q0 -95 -55.5 -174.5t-143.5 -123t-185 -43.5q-104 0 -180 64t-76 170q0 50 25.5 105.5t70 103.5t115 79.5t151.5 31.5q78 0 150 -47v386z" />
<glyph unicode="&#xf6b1;" horiz-adv-x="2048" d="M1024 2048q208 0 397.5 -81t327 -218.5t218.5 -327t81 -397.5t-81 -397.5t-218.5 -327t-327 -218.5t-397.5 -81t-397.5 81t-327 218.5t-218.5 327t-81 397.5t81 397.5t218.5 327t327 218.5t397.5 81zM1024 1707q-139 0 -265.5 -54t-218 -145.5t-145.5 -218t-54 -265.5
t54 -265.5t145.5 -218t218 -145.5t265.5 -54t265.5 54t218 145.5t145.5 218t54 265.5t-54 265.5t-145.5 218t-218 145.5t-265.5 54zM1460 1092q-16 0 -31 9q-198 116 -513 116q-143 0 -281 -36q-12 -4 -20 -4q-26 0 -44.5 20t-18.5 45q0 20 13 37.5t32 23.5q145 42 316 42
q356 0 581 -134q30 -19 30 -55q0 -27 -19.5 -45.5t-44.5 -18.5zM1403 982q26 -18 26 -46q0 -23 -15 -38.5t-38 -15.5q-14 0 -28 8q-190 113 -443 113q-129 0 -237 -33q-15 -3 -17 -3q-21 0 -36.5 16t-15.5 39q0 17 10 31t26 18q125 40 271 40q282 0 497 -129zM1323 781
q21 -15 20 -40q0 -16 -13 -28t-29 -12q-11 0 -24 8q-151 91 -343 94q-121 1 -255 -29q-3 -1 -10 -1q-17 0 -29.5 12.5t-12.5 29.5q0 34 33 42q150 31 258 31q231 0 405 -107z" />
<glyph unicode="&#xf6b2;" horiz-adv-x="2048" d="M1024 2048q208 0 397.5 -81.5t326.5 -218.5t218.5 -326.5t81.5 -397.5q0 -209 -81.5 -398.5t-218.5 -326.5t-326.5 -218t-397.5 -81q-209 0 -398.5 81t-326.5 218t-218 326.5t-81 398.5q0 208 81 397.5t218 326.5t326.5 218.5t398.5 81.5zM1408 597q205 0 294.5 63.5
t89.5 180.5q0 71 -24.5 120t-64 73.5t-87 39.5t-95 24t-87 20.5t-64 36t-24.5 63.5q0 45 32.5 69t93.5 24q66 0 98 -24.5t39 -79.5l176 21q-21 223 -304 223q-140 0 -226 -62.5t-86 -189.5q0 -67 24.5 -113.5t63.5 -70t86 -38.5t94.5 -24t86.5 -21t63.5 -36.5t24.5 -63.5
q0 -97 -183 -97q-52 0 -93.5 10t-72 31.5t-53.5 46t-42 63t-31.5 72t-27.5 83.5q-22 74 -41 124t-46 100.5t-59 81.5t-76 56.5t-102 36.5t-133 11q-83 0 -152.5 -24.5t-125 -75t-87 -137.5t-31.5 -204q0 -94 22 -167t57.5 -118.5t86.5 -75t104 -41t114 -11.5
q85 0 158.5 23.5t104.5 46.5l31 23l-57 154q-4 -4 -10.5 -11.5t-30 -26.5t-49 -33t-65.5 -26t-82 -12q-81 0 -140 76.5t-59 212.5q0 132 58 209.5t158 77.5q29 0 53.5 -5t44 -12.5t37.5 -23t31 -28t26 -36.5t21.5 -41t19.5 -48t17 -50t17.5 -55.5t18.5 -56.5
q37 -112 69 -165q117 -193 396 -193z" />
<glyph unicode="&#xf6b3;" horiz-adv-x="2048" d="M1024 2048q209 0 398.5 -81t326.5 -218t218 -326.5t81 -398.5t-81 -398.5t-218 -326.5t-326.5 -218t-398.5 -81t-398.5 81t-326.5 218t-218 326.5t-81 398.5t81 398.5t218 326.5t326.5 218t398.5 81zM1573 768q88 0 149.5 61.5t61.5 149.5t-61.5 149.5t-149.5 61.5
q-40 0 -82 -16q-12 144 -119 244.5t-252 100.5q-54 0 -131 -30q-20 -7 -21 -26v-670q2 -22 24 -25h581zM837 786q13 49 21.5 115t8.5 95q0 35 -11 188.5t-22 214.5q-2 10 -11.5 17.5t-19.5 7.5t-19 -7.5t-11 -17.5q-11 -61 -22 -214.5t-11 -188.5q0 -29 8.5 -95t21.5 -115
q8 -27 33 -27q27 0 34 27zM618 788q11 36 20 107t9 95q0 31 -9.5 128t-23.5 157q-2 10 -11.5 17t-19.5 7t-19.5 -7t-12.5 -17q-13 -60 -22.5 -157.5t-9.5 -127.5q0 -24 9 -95t20 -107q9 -29 35 -29t35 29zM397 838q29 90 29 144q0 55 -29 145q-9 23 -34 23q-26 0 -35 -23
q-29 -90 -29 -145q0 -54 29 -144q9 -23 35 -23q25 0 34 23z" />
<glyph unicode="&#xf6f1;" horiz-adv-x="2048" d="M1024 2048q208 0 397.5 -81t327 -218.5t218.5 -327t81 -397.5t-81 -397.5t-218.5 -327t-327 -218.5t-397.5 -81t-397.5 81t-327 218.5t-218.5 327t-81 397.5t81 397.5t218.5 327t327 218.5t397.5 81zM1579 1067v512h-512v-512h512zM981 1067v512h-512v-512h512zM1579 469
v512h-512v-512h512zM981 469v512h-512v-512h512z" />
<glyph unicode="&#xf6f2;" horiz-adv-x="2048" d="M1024 2048q208 0 397.5 -81t327 -218.5t218.5 -327t81 -397.5t-81 -397.5t-218.5 -327t-327 -218.5t-397.5 -81t-397.5 81t-327 218.5t-218.5 327t-81 397.5t81 397.5t218.5 327t327 218.5t397.5 81zM1536 1076v578l-640 -132v-456zM811 1064v441l-427 -87v-361zM811 543
v441l-427 7v-361zM1536 394v578l-640 10v-456z" />
<glyph unicode="&#xf6f3;" horiz-adv-x="2048" d="M1024 2048q208 0 397.5 -81t327 -218.5t218.5 -327t81 -397.5t-81 -397.5t-218.5 -327t-327 -218.5t-397.5 -81t-397.5 81t-327 218.5t-218.5 327t-81 397.5t81 397.5t218.5 327t327 218.5t397.5 81zM640 1237h768q0 99 -46.5 184t-126.5 137l63 94q11 18 -6 30
q-18 11 -30 -6l-64 -96q-82 41 -174 41t-174 -41l-64 96q-12 17 -30 6q-17 -12 -6 -30l63 -94q-80 -52 -126.5 -137t-46.5 -184zM1195 1451q17 0 29.5 -12.5t12.5 -30.5t-12.5 -30.5t-29.5 -12.5q-18 0 -30.5 12.5t-12.5 30.5t12.5 30.5t30.5 12.5zM853 1451
q18 0 30.5 -12.5t12.5 -30.5t-12.5 -30.5t-30.5 -12.5q-17 0 -29.5 12.5t-12.5 30.5t12.5 30.5t29.5 12.5zM1621 768v384q0 35 -25 60t-60 25t-60 -25t-25 -60v-384q0 -35 25 -60t60 -25t60 25t25 60zM597 768v384q0 35 -25 60t-60 25t-60 -25t-25 -60v-384q0 -35 25 -60
t60 -25t60 25t25 60zM1408 640v555h-768v-555q0 -35 25 -60t60 -25h43v-214q0 -35 25 -60t60 -25q36 0 61 25t25 60v214h170v-214q0 -35 25 -60t61 -25q35 0 60 25t25 60v214h43q35 0 60 25t25 60z" />
<glyph unicode="&#xf6f4;" horiz-adv-x="2048" d="M1024 2048q208 0 397.5 -81t327 -218.5t218.5 -327t81 -397.5t-81 -397.5t-218.5 -327t-327 -218.5t-397.5 -81t-397.5 81t-327 218.5t-218.5 327t-81 397.5t81 397.5t218.5 327t327 218.5t397.5 81zM1094 1274q111 0 160 43t49 105q0 46 -36.5 80t-124.5 34h-199
l-56 -262h207zM557 1274q112 0 160.5 43t48.5 105q0 46 -36.5 80t-123.5 34h-200l-56 -262h207zM1584 1040q111 0 159.5 42.5t48.5 105.5q0 46 -36.5 80t-123.5 34h-199l-57 -262h208zM1022 880q111 0 160 43t49 105q0 46 -36.5 80t-124.5 34h-199l-57 -262h208zM486 880
q111 0 159.5 43t48.5 105q0 46 -36.5 80t-123.5 34h-200l-56 -262h208zM1506 629q112 0 160.5 43t48.5 105q0 46 -36.5 80t-123.5 34h-200l-56 -262h207zM945 469q111 0 159.5 43t48.5 105q0 47 -36 80.5t-124 33.5h-199l-57 -262h208z" />
<glyph unicode="&#xf6fa;" horiz-adv-x="2048" d="M1024 2048q209 0 398.5 -81t326.5 -218t218 -326.5t81 -398.5t-81 -398.5t-218 -326.5t-326.5 -218t-398.5 -81t-398.5 81t-326.5 218t-218 326.5t-81 398.5t81 398.5t218 326.5t326.5 218t398.5 81zM951 1588l375 -640l145 85l-375 640q-11 17 -30 22t-36 -5l-62 -36
q-17 -10 -22 -29.5t5 -36.5zM847 1467l-46 -81l145 -84l47 81q10 17 4.5 36t-22.5 29l-62 36q-17 10 -36 5t-30 -22zM451 780l145 -83l326 564l-145 84zM785 928h497l-98 168h-302zM1742 928v168h-253l98 -168h155zM306 1096v-168h175l97 168h-272zM1350 907l77 -131l145 85
l-77 130zM1655 490q23 52 23 144q0 109 -61 162q-13 12 -30 18l-139 -81q-5 -50 39 -97q16 -18 45.5 -37.5t51.5 -43t36 -63.5q4 -9 10 -11q18 -7 25 9zM374 479l196 178l-141 81z" />
<glyph unicode="&#xf6fb;" horiz-adv-x="2048" d="M1024 2048q209 0 398.5 -81t326.5 -218t218 -326.5t81 -398.5t-81 -398.5t-218 -326.5t-326.5 -218t-398.5 -81t-398.5 81t-326.5 218t-218 326.5t-81 398.5t81 398.5t218 326.5t326.5 218t398.5 81zM640 571q0 -40 28 -52l506 506l-505 505q-29 -12 -29 -53v-906z
M1333 1184l-505 278l391 -392zM1547 1067l-156 85l-126 -127l128 -128l154 84q31 18 31 43t-31 43zM823 583l512 282l-116 115z" />
<glyph unicode="&#xf8ff;" horiz-adv-x="2048" d="M1024 2048q208 0 397.5 -81t327 -218.5t218.5 -327t81 -397.5t-81 -397.5t-218.5 -327t-327 -218.5t-397.5 -81t-397.5 81t-327 218.5t-218.5 327t-81 397.5t81 397.5t218.5 327t327 218.5t397.5 81zM1285 1820q-49 -4 -99.5 -27t-93.5 -62t-67 -98.5t-15 -127.5
q79 -3 148 44.5t104 122t23 148.5zM1294 441q48 0 99 37.5t89 90.5t69 106.5t47 90.5l17 38q-8 3 -21.5 8.5t-47.5 28.5t-59.5 52t-47 81t-21.5 112q0 51 16.5 96.5t39.5 74t46 50t40 31.5l16 9q-4 6 -11 17t-32 38t-53 48t-73 38t-93 17q-40 0 -79.5 -12.5t-66 -27t-58 -27
t-57.5 -12.5q-45 0 -122.5 39.5t-139.5 39.5q-42 0 -89 -16t-95 -51.5t-86.5 -84.5t-63 -123t-24.5 -159q0 -139 62 -288.5t152.5 -245.5t170.5 -96q40 0 110 28.5t130 28.5q68 0 129.5 -28.5t106.5 -28.5z" />
<glyph unicode="&#x1f44d;" horiz-adv-x="2048" d="M1024 2048q208 0 397.5 -81.5t326.5 -218.5t218.5 -326.5t81.5 -397.5q0 -209 -81.5 -398.5t-218.5 -326.5t-326.5 -218t-397.5 -81q-209 0 -398.5 81t-326.5 218t-218 326.5t-81 398.5q0 208 81 397.5t218 326.5t326.5 218.5t398.5 81.5zM1621 948q0 63 -49 102
q49 39 49 102q0 53 -37.5 90.5t-90.5 37.5h-272q-13 0 -22 12q-8 14 -2 24l4 14q4 13 10 36t12 50t10 59.5t4 60.5q0 87 -45 154q-19 28 -45 43.5t-50 15.5q-31 0 -52 -23t-21 -57q0 -72 -25.5 -140t-66 -118.5t-89.5 -92.5t-97 -68t-87 -40.5t-62 -14.5h-85v-598h171
l253 -94q73 -34 152 -34h268q46 0 80 33.5t34 80.5q0 26 -12 50q42 11 69.5 46t27.5 80q0 37 -21 68q39 13 63 46t24 75z" />
<glyph unicode="&#x1f4de;" horiz-adv-x="2048" d="M1024 2048q209 0 398.5 -81t326.5 -218t218 -326.5t81 -398.5t-81 -398.5t-218 -326.5t-326.5 -218t-398.5 -81t-398.5 81t-326.5 218t-218 326.5t-81 398.5t81 398.5t218 326.5t326.5 218t398.5 81zM553 424q278 31 511 176.5t381 379.5t179 515l-335 133l-182 -363
l172 -172q-125 -199 -324 -324l-172 172l-363 -181z" />
<glyph unicode="&#x1f517;" horiz-adv-x="2048" d="M0 1024q0 208 81 397.5t218.5 327t327 218.5t397.5 81t397.5 -81t327 -218.5t218.5 -327t81 -397.5t-81 -397.5t-218.5 -327t-327 -218.5t-397.5 -81t-397.5 81t-327 218.5t-218.5 327t-81 397.5zM1069 1524l-185 -186q-94 -94 -94 -227q0 -131 94 -227q24 -22 53 -22
q31 0 53 22t22 53q0 32 -22 53q-52 52 -52 122q0 72 52 122l183 184q50 50 123 50t122 -50q50 -49 50 -122t-50 -123l-88 -87q26 -69 26 -149q0 -24 -1 -36l169 168q94 94 94 227q0 134 -94 228t-228 94q-133 0 -227 -94zM1111 1186q-31 0 -53 -22t-22 -53q0 -29 22 -53
q52 -49 52 -122q0 -71 -52 -122l-183 -184q-52 -50 -123 -50q-70 0 -122 50q-50 52 -50 122q0 71 50 123l88 87q-26 69 -26 149q0 24 1 36l-169 -168q-94 -94 -94 -227q0 -131 94 -228q97 -94 228 -94q133 0 227 94l185 186q94 94 94 227t-94 227q-21 22 -53 22z" />
<glyph   />
<glyph  horiz-adv-x="682"  />
<glyph unicode=" " horiz-adv-x="512"  />
<glyph unicode="+" horiz-adv-x="1384" d="M1292 510h-515v-510h-170v510h-515v175h515v510h170v-510h515v-175z" />
<glyph unicode="-" horiz-adv-x="1975"  />
<glyph unicode="0" horiz-adv-x="1157" d="M1096 727q0 -330 -136 -527.5t-370 -197.5q-129 0 -227 58t-157 160t-89.5 230t-32.5 279q0 391 137.5 586.5t372.5 195.5q238 0 370 -194.5t132 -589.5zM907 750q0 596 -313 596q-102 0 -171.5 -70.5t-101.5 -191t-32 -285.5q0 -182 32 -321.5t102 -224.5t171 -85
q96 0 168.5 81.5t108.5 212.5t36 288z" />
<glyph unicode="5" horiz-adv-x="1141" d="M1090 494q0 -77 -21 -149t-63.5 -134.5t-103 -109.5t-145.5 -74t-184 -27q-89 0 -173 24t-156 71t-116 127.5t-44 183.5h192q15 -120 94.5 -182t207.5 -62q135 0 227 91.5t92 225.5q0 110 -46 188t-117.5 114t-160.5 36q-94 0 -169 -35.5t-107 -97.5l-160 8l109 787h766
v-181h-625l-63 -403q38 37 119.5 62.5t162.5 25.5q99 0 185.5 -30.5t153.5 -89.5t106 -154t39 -215z" />
<glyph unicode="A" horiz-adv-x="1375" d="M905 607l-218 654l-237 -654h455zM1344 0h-218l-145 429h-595l-154 -429h-204l555 1479h230z" />
<glyph unicode="B" horiz-adv-x="1375" d="M1287 443q0 -132 -64.5 -234.5t-168.5 -155.5t-227 -53h-680v1479h668q165 0 280 -99t119 -275q0 -100 -50 -187.5t-142 -121.5q117 -41 191 -133.5t74 -219.5zM1017 1062q0 122 -62.5 181t-219.5 63h-384v-455h389q139 0 206 60.5t71 150.5zM1088 417q0 66 -14 111.5
t-50.5 82.5t-105 56t-171.5 20h-396v-519h462q69 0 123 23t85.5 60.5t48 79.5t18.5 86z" />
<glyph unicode="C" horiz-adv-x="1489" d="M1403 543q-11 -96 -44.5 -183t-89 -160t-128 -126.5t-167 -83.5t-201.5 -30q-150 0 -270.5 49t-196.5 127.5t-127.5 184t-72.5 212t-21 218.5q0 116 27 225t82.5 206t135 170.5t191 118t242.5 48.5q57 0 115.5 -9t125.5 -28.5t127.5 -57t113 -89t90.5 -129.5t52 -173
h-195q-29 147 -137.5 225.5t-262.5 78.5q-105 0 -189 -31t-140.5 -84t-94 -128.5t-55 -160t-19.5 -182.5q2 -91 19 -177t53 -166t87.5 -139.5t128 -95.5t169.5 -36q193 0 310 107t146 299h196z" />
<glyph unicode="D" horiz-adv-x="1489" d="M1384 792q0 -125 -24.5 -240.5t-74 -215t-119 -173.5t-166 -117.5t-208.5 -45.5h-628v1479h621q77 0 155.5 -22t157.5 -74.5t140 -129t101.5 -196t44.5 -265.5zM1178 775q0 85 -13.5 160.5t-45.5 144t-79.5 118t-120 79t-163.5 29.5h-389v-1138h413q119 0 210.5 81
t139.5 218t48 308z" />
<glyph unicode="E" horiz-adv-x="1375" d="M1266 0h-1093v1479h1081v-180h-879v-450h810v-178h-810v-493h891v-178z" />
<glyph unicode="F" horiz-adv-x="1256" d="M1197 1299h-822v-450h725v-178h-725v-671h-202v1479h1024v-180z" />
<glyph unicode="G" horiz-adv-x="1598" d="M1446 0h-128l-47 197q-70 -98 -200 -161.5t-286 -68.5q-146 0 -262 39t-195 108.5t-131.5 168.5t-76 215t-23.5 253q0 112 26.5 219.5t83.5 205t137.5 171t197 118t254.5 45.5q113 0 217.5 -31t190.5 -90t144.5 -152t73.5 -208h-192q-27 109 -95 180t-154 99.5t-194 28.5
q-212 0 -349 -161.5t-137 -435.5q0 -295 134 -454.5t352 -159.5q173 0 310 106q91 74 125.5 158.5t38.5 225.5h-460v171h645v-787z" />
<glyph unicode="H" horiz-adv-x="1489" d="M1332 0h-201v687h-773v-687h-202v1479h202v-614h773v614h201v-1479z" />
<glyph unicode="I" horiz-adv-x="569" d="M386 0h-201v1479h201v-1479z" />
<glyph unicode="J" horiz-adv-x="1029" d="M882 398q0 -117 -33.5 -203t-93.5 -136t-134.5 -73.5t-165.5 -25.5q-93 0 -167 23t-121 60t-78 86.5t-43.5 99t-12.5 100.5v145h187v-104q0 -123 54.5 -181.5t168.5 -58.5q122 0 177.5 62t57.5 194v1093h204v-1081z" />
<glyph unicode="K" horiz-adv-x="1375" d="M1363 0h-258l-520 740l-232 -221v-519h-201v1479h201v-720l718 720h275l-616 -597z" />
<glyph unicode="L" horiz-adv-x="1147" d="M1105 0h-953v1479h201v-1301h752v-178z" />
<glyph unicode="M" horiz-adv-x="1711" d="M1567 0h-197v1242l-412 -1242h-199l-422 1240v-1240h-190v1479h287l426 -1254l422 1254h285v-1479z" />
<glyph unicode="N" horiz-adv-x="1489" d="M1332 0h-227l-754 1192v-1192h-195v1479h237l745 -1197v1197h194v-1479z" />
<glyph unicode="O" horiz-adv-x="1598" d="M1519 740q0 -56 -5.5 -112t-23.5 -134.5t-48 -146.5t-85 -138.5t-127.5 -121t-182.5 -83.5t-243 -35q-145 0 -265.5 43t-203 116.5t-140 172.5t-84 209.5t-26.5 229.5q0 124 27 236t85 209t141.5 168.5t202.5 113t263 43.5q113 0 211 -25.5t169.5 -69.5t129.5 -105
t95.5 -129.5t63 -145t36 -149.5t10.5 -146zM1318 740q0 264 -136.5 426t-377.5 166q-230 0 -372.5 -160.5t-142.5 -431.5q0 -267 138 -428t377 -165q241 0 377.5 162.5t136.5 430.5z" />
<glyph unicode="P" horiz-adv-x="1375" d="M1278 1062q0 -66 -14 -126t-47 -117t-82.5 -99t-125.5 -68.5t-170 -28.5h-464v-623h-202v1479h666q188 0 311 -109t128 -308zM1071 1062q0 244 -291 244h-405v-514h398q295 0 298 270z" />
<glyph unicode="Q" horiz-adv-x="1598" d="M1519 740q0 -358 -215 -569l201 -157l-97 -121l-228 178q-155 -102 -379 -102q-145 0 -265.5 43t-203.5 116.5t-140.5 172.5t-84 209.5t-26.5 229.5q0 124 27 236t85 209t141.5 168.5t203 113t263.5 43.5q113 0 210.5 -25.5t169.5 -69.5t130 -105t96.5 -129.5t64 -145
t36.5 -149.5t11 -146zM1313 740q0 264 -135.5 426t-376.5 166q-231 0 -372.5 -160t-141.5 -432q0 -268 137 -428.5t377 -164.5q119 0 216 47l-154 117l102 125l189 -144q159 165 159 448z" />
<glyph unicode="R" horiz-adv-x="1489" d="M1124 1052q0 112 -58.5 181t-186.5 73h-523v-502h507q112 0 186.5 69t74.5 179zM1384 0h-225q-26 57 -37.5 150t-15 186.5t-6.5 113.5q-26 178 -242 181h-502v-631h-202v1479h709q89 0 169 -24t146 -71.5t106 -128t43 -184.5q0 -230 -215 -343q79 -25 126 -87t56 -153
q6 -56 12.5 -157t14.5 -165.5t25 -106.5q18 -42 38 -59z" />
<glyph unicode="S" horiz-adv-x="1375" d="M1273 415q0 -145 -76.5 -247.5t-204.5 -150.5t-297 -48q-284 0 -438 127t-155 392h185q0 -78 24 -139t62.5 -98.5t93.5 -62.5t109.5 -35.5t118.5 -12.5q59 0 112 7.5t104 25.5t88 45.5t59.5 71t22.5 99.5q0 39 -8.5 69.5t-24.5 54t-44.5 42.5t-64 34t-88 29.5t-110.5 28
t-138 31.5q-36 8 -55 12q-67 15 -119.5 32.5t-106.5 47.5t-90 67.5t-59.5 94t-25.5 125.5q0 92 30 171.5t90 143.5t161 101t231 37q111 0 201.5 -21t148 -51t101.5 -77.5t65.5 -84.5t36 -89.5t17 -75.5t5.5 -58q1 -9 1 -12h-185q0 63 -21.5 114t-57 84.5t-85 56.5
t-100.5 33.5t-108 12.5q-51 0 -96 -6.5t-90.5 -24.5t-77.5 -46.5t-52.5 -75.5t-20.5 -108q0 -141 178 -180l422 -97q332 -74 332 -389z" />
<glyph unicode="T" horiz-adv-x="1256" d="M1230 1299h-502v-1299h-202v1299h-498v180h1202v-180z" />
<glyph unicode="U" horiz-adv-x="1489" d="M1327 486q0 -105 -35.5 -195.5t-106 -162t-187 -113.5t-268.5 -43q-282 0 -423.5 130.5t-145.5 373.5v1003h202v-965q0 -171 95 -269t272 -98q180 0 285.5 94.5t110.5 268.5v969h201v-993z" />
<glyph unicode="V" horiz-adv-x="1375" d="M1330 1479l-538 -1479h-214l-538 1479h233l419 -1263l436 1263h202z" />
<glyph unicode="W" horiz-adv-x="1941" d="M1911 1479l-392 -1479h-208l-337 1225l-346 -1225h-211l-384 1479h216l272 -1206l339 1206h216l339 -1206l273 1206h223z" />
<glyph unicode="X" horiz-adv-x="1375" d="M1332 0h-249l-396 607l-410 -607h-239l529 759l-498 720h251l375 -566l376 566h240l-496 -723z" />
<glyph unicode="Y" horiz-adv-x="1375" d="M1342 1479l-557 -889v-590h-200v590l-554 889h242l422 -711l424 711h223z" />
<glyph unicode="Z" horiz-adv-x="1256" d="M1209 0h-1162v164l906 1137h-839v178h1095v-173l-910 -1126h910v-180z" />
<glyph unicode="a" horiz-adv-x="1147" d="M787 358v194q-29 -19 -84 -34t-111.5 -23.5t-117.5 -25t-108 -37.5t-77.5 -62t-30.5 -97q0 -78 52 -118.5t140 -40.5q51 0 109 17t109.5 47t85 77.5t33.5 102.5zM801 140q-154 -166 -389 -173q-151 0 -246 89t-95 214q0 60 15.5 109t39.5 82.5t64 60.5t76.5 42.5t91 29.5
t93.5 20.5t98 16.5t91 16q82 14 117 50.5t35 79.5q0 83 -63.5 133t-185.5 50q-110 0 -176.5 -53t-70.5 -160h-168q0 147 111.5 250.5t327.5 107.5q106 0 195.5 -32.5t150.5 -106.5t61 -179v-576q0 -60 22.5 -82t96.5 4v-133q-57 -21 -119 -21q-168 0 -173 161z" />
<glyph unicode="b" horiz-adv-x="1147" d="M1088 569q3 -85 -10.5 -166.5t-48 -161.5t-88 -140t-138.5 -97t-191 -37q-104 0 -187.5 42.5t-130.5 123.5l-14 -133h-164v1479h185v-538q59 78 138.5 119t191.5 45q197 0 323.5 -149.5t133.5 -386.5zM898 538q0 198 -79 301.5t-222 103.5q-82 0 -143.5 -38.5t-95 -100.5
t-49 -128.5t-15.5 -135.5q0 -404 313 -414q140 0 215.5 112.5t75.5 299.5z" />
<glyph unicode="c" horiz-adv-x="1029" d="M991 379q-12 -111 -57 -194t-111 -129t-138 -67.5t-149 -21.5q-203 0 -340 158.5t-137 412.5q0 140 39.5 251t107 179t153.5 103.5t184 35.5q62 0 119.5 -11.5t114.5 -40t100.5 -71.5t74.5 -112t39 -156h-173q-10 106 -83.5 166.5t-184.5 60.5q-63 0 -114.5 -21t-94 -66
t-66.5 -126t-24 -192q0 -170 85 -287.5t214 -117.5q109 0 176.5 62t88.5 184h176z" />
<glyph unicode="d" horiz-adv-x="1147" d="M555 943q-143 0 -222 -103.5t-79 -301.5q0 -187 75.5 -299.5t215.5 -112.5q313 10 313 414q0 69 -15.5 135.5t-48.5 128.5t-94.5 100.5t-144.5 38.5zM540 -33q-106 0 -191 37t-138.5 97t-88 140t-48 161.5t-10.5 166.5q7 237 133.5 386.5t323.5 149.5q113 -4 191.5 -45
t138.5 -119v538h185v-1479h-164v152q-48 -82 -139.5 -133.5t-192.5 -51.5z" />
<glyph unicode="e" horiz-adv-x="1147" d="M1074 476h-804q0 -150 91.5 -246.5t226.5 -96.5q68 0 125 22t91 54.5t52.5 66.5t18.5 61h185q-30 -172 -161 -270t-321 -98q-114 0 -209 42.5t-157 116t-97 171t-37 208.5q0 270 139.5 436t365.5 166q160 0 273.5 -81.5t168 -223.5t49.5 -328zM884 623q0 144 -87 234.5
t-212 90.5q-128 0 -219 -95.5t-96 -229.5h614z" />
<glyph unicode="f" horiz-adv-x="569" d="M538 1493v-149q-31 5 -76 5q-54 0 -76.5 -25t-22.5 -84v-164h175v-163h-175v-913h-185v913h-150v163h150v199q0 98 73.5 164t191.5 66q55 0 95 -12z" />
<glyph unicode="g" horiz-adv-x="1228" d="M905 536q0 180 -82.5 283t-227.5 103q-56 0 -109 -23t-97 -67t-70.5 -116.5t-26.5 -163.5q0 -106 26.5 -189.5t71.5 -132.5t99 -74.5t113 -25.5q132 0 216 107.5t87 298.5zM1086 47q0 -262 -128 -390.5t-358 -128.5q-33 0 -66 3t-75 12.5t-79.5 24.5t-74.5 41.5t-63.5 61
t-43.5 85t-18 111.5h180q0 -80 68 -125t160 -45q150 0 233.5 83t83.5 253v64q-65 -70 -145.5 -99t-183.5 -29q-84 0 -166.5 36.5t-151 103t-112 171.5t-46.5 230q0 277 139.5 436t362.5 159q98 0 180 -42t123 -110v130h181v-1036z" />
<glyph unicode="h" horiz-adv-x="1147" d="M1012 0h-185v704q0 117 -50 178t-161 61q-61 0 -113.5 -21t-96 -62.5t-68.5 -112t-25 -162.5v-585h-185v1479h185v-547q55 85 147 128t187 47q55 0 104 -10.5t98 -38t84 -70.5t57 -112.5t22 -159.5v-716z" />
<glyph unicode="i" horiz-adv-x="460" d="M318 1271h-185v203h185v-203zM318 0h-185v1076h185v-1076z" />
<glyph unicode="j" horiz-adv-x="543" d="M405 1271h-185v208h185v-208zM405 -185q0 -106 -70 -175t-200 -69q-59 0 -92 7v157q41 -10 83 -10q51 0 72.5 29t21.5 101v1221h185v-1261z" />
<glyph unicode="k" horiz-adv-x="1029" d="M1029 0h-230l-356 526l-130 -128v-398h-185v1479h185v-860l460 457h232l-429 -412z" />
<glyph unicode="l" horiz-adv-x="460" d="M320 0h-187v1479h187v-1479z" />
<glyph unicode="m" horiz-adv-x="1711" d="M1586 0h-185v695q0 248 -199 248q-108 0 -177 -78t-74 -211v-654h-185v742q0 84 -42 142.5t-131 58.5q-53 0 -99.5 -18.5t-87 -58t-65 -112t-26.5 -169.5v-585h-185v1076h171v-152q57 89 144 135t186 46q113 0 179.5 -46t109.5 -127q46 72 131 122.5t198 50.5
q42 0 84 -8.5t89 -33.5t82 -63.5t58.5 -105t23.5 -152.5v-742z" />
<glyph unicode="n" horiz-adv-x="1147" d="M1012 0h-185v673q0 61 -10 107.5t-33 84.5t-65.5 58t-102.5 20q-130 0 -216.5 -88.5t-86.5 -240.5v-614h-185v1076h175v-156q15 24 43.5 52.5t72 60t104 52t124.5 20.5q166 0 265.5 -96t99.5 -293v-716z" />
<glyph unicode="o" horiz-adv-x="1147" d="M1081 538q0 -112 -34.5 -213t-97.5 -179.5t-159.5 -126t-213.5 -50.5q-94 0 -175 30.5t-140.5 84t-102 125t-64 155.5t-21.5 174q0 155 58 283t174 207t271 79t271.5 -79t175 -207t58.5 -283zM891 538q1 68 -16.5 136t-53.5 129.5t-100 101t-145 41.5q-80 0 -143 -39
t-98.5 -101.5t-53.5 -131t-18 -136.5q0 -81 18 -152.5t54 -130.5t98 -93t143 -34q82 0 143.5 34t97 93.5t53.5 129.5t21 153z" />
<glyph unicode="p" horiz-adv-x="1147" d="M600 133q143 0 222 103.5t79 301.5q0 187 -76 300t-216 113q-160 -6 -236.5 -114t-76.5 -301q0 -69 15.5 -135t48.5 -128.5t95 -101t145 -38.5zM614 1109q106 0 191 -37t138.5 -97t88.5 -140t48 -161.5t10 -166.5q-7 -237 -134 -386t-325 -149q-112 3 -190 44t-138 119
v-562h-187v1503h166v-152q48 82 139.5 133.5t192.5 51.5z" />
<glyph unicode="q" horiz-adv-x="1147" d="M45 507q0 85 14 166t48.5 161.5t87 140t136.5 97t190 37.5q103 0 186 -42.5t130 -123.5l16 133h166v-1503h-185v562q-62 -78 -140 -119t-189 -44q-201 0 -328 143.5t-132 391.5zM235 538q0 -198 80 -301.5t223 -103.5q66 0 119 26t86.5 67t55.5 95.5t31 107.5t9 107
q0 404 -313 415q-140 0 -215.5 -113t-75.5 -300z" />
<glyph unicode="r" horiz-adv-x="683" d="M609 913q-154 0 -250 -71.5t-96 -196.5v-645h-185v1076h178v-182q94 206 353 206v-187z" />
<glyph unicode="s" horiz-adv-x="1029" d="M960 325q0 -155 -113.5 -256.5t-310.5 -101.5q-97 0 -176 20.5t-142.5 64.5t-101.5 118.5t-45 175.5h178q0 -220 287 -220q101 0 172.5 43t71.5 125q0 44 -23 70t-102 55t-247 69q-48 12 -81.5 22.5t-78 32.5t-72 49t-47.5 71.5t-20 99.5q0 163 114.5 253.5t293.5 90.5
q99 0 175.5 -26t118.5 -63t69.5 -86.5t36 -87.5t10.5 -76h-176q0 88 -64 134t-189 46q-15 0 -30 -1t-42 -5.5t-49 -14.5t-44.5 -26t-35.5 -43t-15 -62q0 -66 62.5 -95.5t267.5 -78.5q23 -5 35 -8q55 -15 95.5 -30t83.5 -39t70 -53t45 -71.5t19 -95.5z" />
<glyph unicode="t" horiz-adv-x="569" d="M538 128v-152q-57 -12 -95 -12q-118 0 -191.5 67t-73.5 163v719h-140v163h140v304h185v-304h175v-163h-175v-681q0 -59 22.5 -85t76.5 -26q33 0 76 7z" />
<glyph unicode="u" horiz-adv-x="1147" d="M116 1076h187v-673q0 -61 10 -107.5t33 -84.5t65.5 -58t102.5 -20q129 0 216.5 89t87.5 240v614h185v-1076h-178v156q-14 -24 -43 -52.5t-72 -59.5t-104 -51.5t-125 -20.5q-166 0 -265.5 95.5t-99.5 292.5v716z" />
<glyph unicode="v" horiz-adv-x="1029" d="M988 1076l-410 -1076h-194l-391 1076h206l294 -882l301 882h194z" />
<glyph unicode="w" horiz-adv-x="1489" d="M1458 1076l-311 -1076h-189l-216 832l-216 -832h-189l-309 1076h197l204 -848l220 848h202l211 -848l216 848h180z" />
<glyph unicode="x" horiz-adv-x="1029" d="M1007 0h-232l-265 405l-261 -405h-228l380 555l-361 521h233l248 -381l252 381h218l-363 -524z" />
<glyph unicode="y" horiz-adv-x="1029" d="M1007 1076q-166 -472 -314.5 -865.5t-182.5 -461.5q-66 -133 -149 -171.5t-235 -4.5v166q35 -13 63.5 -18.5t60 -3t58 22t45.5 56.5l74 171l-403 1109h204l293 -879l292 879h194z" />
<glyph unicode="z" horiz-adv-x="1029" d="M965 0h-901v140l647 784h-597v152h829v-149l-642 -780h664v-147z" />
</font>
</defs>
</svg>
